<svg xmlns="http://www.w3.org/2000/svg" version="1.1" xmlns:xlink="http://www.w3.org/1999/xlink" xmlns:svgjs="http://svgjs.dev/svgjs" viewBox="0 0 1920 1080"><rect width="1920" height="1080" fill="#1f3e76"></rect><g transform="matrix(0.5750000000000001,0.9959292143521044,-0.9959292143521044,0.5750000000000001,935.2083900537251,-701.7678992040071)"><path d="M0,-1080C-3.087594884977051,-959.9411094781328,-24.110840084868,-624.4839010391122,-18.525569309862306,-359.6466568687971C-12.940298534856613,-94.80941269848199,38.65556889334611,208.00485710923755,33.51162465003415,509.0234650218907C28.36768040672219,810.0420729345437,-43.80396399472837,1171.3022347774368,-49.38923476973406,1446.4649906071218C-54.97450554473975,1721.6277464368068,-8.23153912828901,2041.0774984345203,0,2160L 1920 2160 L 1920 -1080 Z" fill="url(&quot;#SvgjsLinearGradient1170&quot;)"></path><path d="M320,-1080C300.53084965888587,-1009.7358767064948,202.21582485753876,-827.3319357171295,203.18509795331528,-658.4152602389684C204.1543710490918,-489.4985847608073,311.1830656314105,-212.33426407733666,325.81563857465915,-66.49994713103376C340.4482115179078,79.33436981526913,278.1659312504884,77.09402769877241,290.980535612807,216.59064143884888C303.79513997512555,356.0872551789254,381.03164867416945,591.8374047861392,402.70326474857046,770.4797353094251C424.3748808229715,949.122065832711,434.959361325533,1113.5314909356066,421.010232059213,1288.4446245785641C407.06110279289305,1463.3577582215216,335.8435278271861,1674.6993079302647,319.00848915065063,1819.9585371671708C302.17345047411516,1965.2177664040769,319.83474819177513,2103.326422861195,320,2160L 1920 2160 L 1920 -1080 Z" fill="url(&quot;#SvgjsLinearGradient1171&quot;)"></path><path d="M640,-1080C651.3389312268861,-973.1544802562803,697.989504692879,-635.3549252160926,708.0335873613162,-438.9268815376815C718.0776700297534,-242.4988378592704,696.0330464754021,-116.22244686985621,700.2644960106234,98.56826207046646C704.4959455458446,313.3589710107891,743.4690638490679,610.5527095146089,733.4222845726438,849.8173721042544C723.3755052962197,1089.0820346939,655.5542011141858,1315.7924662923822,639.9838203520785,1534.1562376083398C624.4134395899712,1752.5200089242974,639.9973033920131,2055.6927062680566,640,2160L 1920 2160 L 1920 -1080 Z" fill="url(&quot;#SvgjsLinearGradient1172&quot;)"></path><path d="M960,-1080C941.4921494321101,-970.7988296198641,835.2223603375,-628.6189023468477,848.9528965926606,-424.7929777191848C862.6834328478212,-220.96705309152193,1040.8638669516138,-92.02657467964431,1042.3832175309637,142.95554776597731C1043.9025681103137,377.93767021159897,868.1506590424596,761.470715190478,858.0690000687608,985.099756954545C847.9873410950621,1208.728798718612,964.9047637002313,1288.913091176137,981.8932636887712,1484.7297983503795C998.881763677311,1680.546505524622,963.6488772814619,2047.4549663917298,960,2160L 1920 2160 L 1920 -1080 Z" fill="url(&quot;#SvgjsLinearGradient1173&quot;)"></path><path d="M1280,-1080C1282.7527255411333,-1008.590569316672,1301.2981999623903,-798.846155990231,1296.5163532467996,-651.5434159000324C1291.7345065312088,-504.2406758098339,1242.4408315415744,-359.6653264903226,1251.3089197064555,-196.18355945880887C1260.1770078713366,-32.701792427295146,1329.6252023633124,185.55485510805275,1349.7248822360866,329.34718628904994C1369.8245621088608,473.13951747004717,1370.2042804802882,512.2831454070993,1371.9069989431016,666.5704276271742C1373.609717405915,820.8577098472492,1357.736205655616,1093.3337040451793,1359.9411930129677,1255.0708796095C1362.1461803703194,1416.8080551738208,1398.46045525604,1486.171960948015,1385.136923087212,1636.9934810130985C1371.813390918384,1787.815001078182,1297.5228205145354,2072.8322468355163,1280,2160L 1920 2160 L 1920 -1080 Z" fill="url(&quot;#SvgjsLinearGradient1174&quot;)"></path><path d="M1600,-1080C1607.1889072323102,-982.0796582010096,1630.7365530958577,-666.7688438804157,1643.133443393861,-492.47794920605776C1655.5303336918641,-318.1870545316998,1664.0817567064523,-202.43364453686573,1674.3813417880185,-34.25463195385214C1684.6809268695847,133.92438062916145,1707.0340044542086,351.4306365876906,1704.9309538832583,516.5961262920239C1702.827903312308,681.7616159963571,1690.134477807117,770.3771264629486,1661.7630383623166,956.7383062721472C1633.3915989175161,1143.0994860813457,1544.996156941508,1434.2195895259063,1534.7023172144552,1634.763205147215C1524.4084774874025,1835.306820768524,1589.117052869076,2072.4605341912024,1600,2160L 1920 2160 L 1920 -1080 Z" fill="url(&quot;#SvgjsLinearGradient1175&quot;)"></path></g><defs><linearGradient x1="0.1" y1="0" x2="0" y2="1" id="SvgjsLinearGradient1170"><stop stop-color="#0d1f41" offset="0"></stop><stop stop-color="#09253f" offset="0"></stop></linearGradient><linearGradient x1="0.1" y1="0" x2="0" y2="1" id="SvgjsLinearGradient1171"><stop stop-color="#08204d" offset="0"></stop><stop stop-color="#0c243a" offset="0.16666666666666666"></stop></linearGradient><linearGradient x1="0.1" y1="0" x2="0" y2="1" id="SvgjsLinearGradient1172"><stop stop-color="#102752" offset="0"></stop><stop stop-color="#17324b" offset="0.3333333333333333"></stop></linearGradient><linearGradient x1="0.1" y1="0" x2="0" y2="1" id="SvgjsLinearGradient1173"><stop stop-color="#212f47" offset="0"></stop><stop stop-color="#172735" offset="0.5"></stop></linearGradient><linearGradient x1="0.1" y1="0" x2="0" y2="1" id="SvgjsLinearGradient1174"><stop stop-color="#092555" offset="0"></stop><stop stop-color="#0e2030" offset="0.6666666666666666"></stop></linearGradient><linearGradient x1="0.1" y1="0" x2="0" y2="1" id="SvgjsLinearGradient1175"><stop stop-color="#202020" offset="0"></stop><stop stop-color="#091a30" offset="0.8333333333333334"></stop></linearGradient></defs></svg>