<svg xmlns="http://www.w3.org/2000/svg" version="1.1" xmlns:xlink="http://www.w3.org/1999/xlink" xmlns:svgjs="http://svgjs.com/svgjs" width="1440" height="560" preserveAspectRatio="none" viewBox="0 0 1440 560">
    <g mask="url(&quot;#SvgjsMask1110&quot;)" fill="none">
        <rect width="1440" height="560" x="0" y="0" fill="url(#SvgjsLinearGradient1111)"></rect>
        <path d="M1440 0L975.4200000000001 0L1440 137.5z" fill="rgba(255, 255, 255, .1)"></path>
        <path d="M975.4200000000001 0L1440 137.5L1440 322.76L554.8900000000001 0z" fill="rgba(255, 255, 255, .075)"></path>
        <path d="M554.8900000000001 0L1440 322.76L1440 393.94L290.6400000000001 0z" fill="rgba(255, 255, 255, .05)"></path>
        <path d="M290.6400000000001 0L1440 393.94L1440 410.9L178.3400000000001 0z" fill="rgba(255, 255, 255, .025)"></path>
        <path d="M0 560L610.03 560L0 405.25z" fill="rgba(0, 0, 0, .1)"></path>
        <path d="M0 405.25L610.03 560L676.77 560L0 316.46z" fill="rgba(0, 0, 0, .075)"></path>
        <path d="M0 316.46L676.77 560L935.4 560L0 314.57z" fill="rgba(0, 0, 0, .05)"></path>
        <path d="M0 314.57L935.4 560L1042.3899999999999 560L0 247.05z" fill="rgba(0, 0, 0, .025)"></path>
    </g>
    <defs>
        <mask id="SvgjsMask1110">
            <rect width="1440" height="560" fill="#ffffff"></rect>
        </mask>
        <linearGradient x1="15.28%" y1="-39.29%" x2="84.72%" y2="139.29%" gradientUnits="userSpaceOnUse" id="SvgjsLinearGradient1111">
            <stop stop-color="#0a1f36" offset="0"></stop>
            <stop stop-color="#102c46" offset="1"></stop>
        </linearGradient>
    </defs>
</svg>
