<svg width="35" height="35" viewBox="0 0 35 35" fill="none" xmlns="http://www.w3.org/2000/svg">
<g clip-path="url(#clip0_4_4303)">
<path d="M34.3968 28.9654H0.603901C0.270651 28.9654 0.000427246 28.6952 0.000427246 28.3619V6.63788C0.000427246 6.30463 0.270651 6.03441 0.603901 6.03441H34.3969C34.7301 6.03441 35.0004 6.30463 35.0004 6.63788V28.3619C35.0003 28.6952 34.7301 28.9654 34.3968 28.9654Z" fill="#41479B"/>
<path d="M35.0003 6.63788C35.0003 6.30463 34.7301 6.03441 34.3968 6.03441H31.697L20.5175 13.3589V6.03441H14.4831V13.3589L3.30368 6.03441H0.603901C0.270651 6.03441 0.000427246 6.30463 0.000427246 6.63788V8.19859L9.59182 14.4826H0.000427246V20.5171H9.59182L0.000427246 26.8012V28.3619C0.000427246 28.6952 0.270651 28.9654 0.603901 28.9654H3.30374L14.4832 21.6409V28.9654H20.5177V21.6409L31.6971 28.9654H34.3969C34.7302 28.9654 35.0004 28.6952 35.0004 28.3619V26.8012L25.409 20.5172H35.0003V14.4827H25.4089L35.0003 8.19859V6.63788Z" fill="#F5F5F5"/>
<path d="M35.0003 15.6896H19.3107V6.03441H15.69V15.6896H0.000427246V19.3102H15.69V28.9654H19.3107V19.3102H35.0003V15.6896Z" fill="#FF4B55"/>
<path d="M12.2334 20.5172L0.0177307 28.4466C0.0604552 28.7381 0.300737 28.9655 0.604047 28.9655H1.43523L14.4501 20.5173H12.2334V20.5172V20.5172Z" fill="#FF4B55"/>
<path d="M23.6796 20.5172H21.4629L34.4588 28.953C34.7617 28.9207 35.0008 28.6734 35.0008 28.3619V27.8658L23.6796 20.5172Z" fill="#FF4B55"/>
<path d="M0.000854492 7.30408L11.0599 14.4827H13.2767L0.352425 6.09331C0.145981 6.18922 0.000854492 6.39532 0.000854492 6.63792V7.30408Z" fill="#FF4B55"/>
<path d="M22.7349 14.4828L34.9799 6.5342C34.929 6.25242 34.6939 6.03456 34.3974 6.03456H33.5328L20.5182 14.4828H22.7349Z" fill="#FF4B55"/>
</g>
<defs>
<clipPath id="clip0_4_4303">
<rect width="35" height="35" fill="white"/>
</clipPath>
</defs>
</svg>
